<svg width="980" height="480" viewBox="0 0 980 480" fill="none" xmlns="http://www.w3.org/2000/svg" xmlns:xlink="http://www.w3.org/1999/xlink">
<mask id="mask0_623_262" style="mask-type:alpha" maskUnits="userSpaceOnUse" x="0" y="0" width="980" height="480">
<path fill-rule="evenodd" clip-rule="evenodd" d="M 741.43,0 C 686.729,0 627.06,29.1399 564.076,86.5872 534.363,113.536 508.349,142.55 489.309,165.814 c -0.08,-0.089 -0.12,-0.134 -0.12,-0.134 -0.051,0.06 -0.103,0.121 -0.155,0.184 -0.055,0.066 -0.111,0.133 -0.169,0.201 C 420.957,87.2881 329.046,0 238.092,0 130.399,0.400712 39.2158,73.3169 10.3692,172.708 8.00753,178.413 6.91786,182.374 6.62979,183.604 2.48644,201.505 3.05176e-5,220.238 3.05176e-5,239.387 3.05176e-5,372.182 106.492,480 237.845,480 c 54.697,0 114.363,-29.141 177.347,-86.587 29.834,-27.06 56.187,-56.219 75.248,-79.533 0,0 -30.663,-34.553 -64.227,-71.602 -18.233,22.478 -44.585,52.89 -74.833,80.366 -21.445,19.469 -40.088,33.066 -56.094,42.431 -50.624,32.098 -112.282,18.655 -152.154,-17.264 -29.345,-26.436 -47.8288,-64.992 -47.8288,-108.008 0,-79.095 63.8118,-143.6184 142.5418,-144.4512 2.359,0 5.051,0.1666 8.076,0.6056 49.179,19.6226 90.502,52.9526 101.562,63.4806 40.608,38.713 78.73,82.84 78.73,82.84 33.564,37.049 64.227,71.602 64.227,71.602 0.122,-0.149 0.252,-0.305 0.386,-0.465 68.196,78.797 160.141,166.143 251.12,166.143 109.433,-0.406 201.819,-75.684 229.07,-177.534 0.937,-2.862 1.431,-4.831 1.618,-5.63 4.143,-17.9 6.637,-36.632 6.637,-55.781 C 978.853,107.817 872.365,0 741.43,0 Z m -46.921,364.264 c 117.26,59.113 189.46,-53.738 189.46,-124.066 0,-79.929 -63.814,-144.4521 -142.539,-144.4521 -21.139,0 -57.603,10.4071 -113.542,61.6101 -30.121,27.36 -56.134,57.609 -74.356,80.061 2.349,2.711 39.316,45.243 78.611,82.703 7.963,7.58 31.502,26.762 62.366,44.144 z" fill="#29ABE2"/>
</mask>
<g mask="url(#mask0_623_262)">
<rect x="-362.245" y="-458.275" width="1703.19" height="1295.66" fill="black"/>
</g>
</svg>
