<svg width="575" height="443" viewBox="0 0 575 443" fill="none" xmlns="http://www.w3.org/2000/svg">
<g style="mix-blend-mode:luminosity">
<g clip-path="url(#clip0_116_474)">
<path fill-rule="evenodd" clip-rule="evenodd" d="M287.494 346.959L211.495 434.358C201.485 445.861 185.212 445.861 175.163 434.358L102.527 350.783C92.4911 339.28 92.4911 320.557 102.527 309.01L178.539 221.611L102.527 134.241C92.4911 122.708 92.4911 103.985 102.527 92.4677L175.163 8.89253C185.212 -2.65444 201.074 -3.11218 211.11 8.43478L287.494 96.2921L363.493 8.90729C373.528 -2.63967 389.775 -2.63967 399.824 8.90729L472.473 92.4825C482.509 104 482.509 122.723 472.473 134.255L396.5 221.625L472.473 309.025C482.509 320.572 482.509 339.295 472.473 350.798L399.824 434.373C389.775 445.876 373.541 445.876 363.493 434.373L287.494 346.959ZM390.738 403.025L445.228 340.344C450.259 334.585 450.259 325.253 445.228 319.45L378.341 242.49C368.305 230.987 368.305 212.264 378.341 200.717L445.228 123.801C450.259 118.013 450.259 108.666 445.228 102.907L390.738 40.2258C385.733 34.4671 377.584 34.4671 372.579 40.2258L305.653 117.171C295.617 128.733 279.37 128.733 269.347 117.171L202.421 40.2258C197.404 34.4671 189.293 34.4671 184.249 40.2258L129.772 102.922C124.754 108.681 124.754 118.013 129.772 123.816L196.698 200.732C206.708 212.279 206.708 230.987 196.698 242.504L129.772 319.464C124.754 325.268 124.754 334.6 129.772 340.358L184.249 403.04C189.293 408.798 197.404 408.798 202.421 403.04L269.347 326.08C279.37 314.547 295.617 314.547 305.653 326.08L372.579 403.04C377.584 408.784 385.733 408.784 390.738 403.025Z" fill="black"/>
</g>
</g>
<path d="M331.266 116.693C313.819 134.994 298.484 154.773 287.316 170.57C287.316 170.57 305.318 194.008 324.988 219.117C335.656 203.898 350.991 183.284 368.716 164.662C401.498 129.921 422.834 122.922 435.224 122.922C481.397 122.922 518.791 166.653 518.791 220.786C518.791 274.406 481.397 318.137 435.224 318.715C433.057 318.715 430.39 318.394 427.223 317.559C440.558 324.623 455.172 329.696 468.784 329.696C553.296 329.696 569.798 263.682 570.742 258.866C573.187 246.729 574.632 234.079 574.632 221.107C574.41 131.077 512.012 58 435.224 58C403.165 58 368.216 77.7784 331.266 116.693Z" fill="url(#paint0_linear_116_474)"/>
<path d="M243.366 324.623C260.868 306.257 276.148 286.543 287.316 270.746C287.316 270.746 269.369 247.307 249.7 222.199C238.976 237.418 223.696 258.031 205.972 276.654C173.19 311.073 151.576 318.394 139.407 318.394C93.2902 318.394 55.8407 274.663 55.8407 220.529C55.8407 166.909 93.2902 123.179 139.407 122.601C141.574 122.601 144.297 122.922 147.408 123.757C134.073 116.693 119.516 111.62 105.903 111.62C21.3917 111.62 4.83397 177.633 3.8894 182.45C1.44464 194.586 0 207.237 0 220.208C0 310.238 62.3972 383.316 139.407 383.316C171.467 383.316 206.472 363.537 243.366 324.623Z" fill="url(#paint1_linear_116_474)"/>
<path d="M106.125 113.033C29.115 110.849 6.44529 174.23 4.50059 182.385C19.2803 111.299 74.2876 58.2569 139.685 58C192.97 58 246.866 117.142 286.649 170.57C286.705 170.441 286.76 170.377 286.816 170.313C286.816 170.313 304.818 193.687 324.487 218.796C324.487 218.796 346.824 248.72 370.66 274.984C379.884 285.13 424.779 326.035 468.007 327.448C547.239 330.017 569.075 263.104 570.298 258.031C555.74 329.439 500.566 382.738 435.002 383.059C381.662 383.059 327.766 323.852 287.816 270.425C287.705 270.553 287.649 270.618 287.594 270.746C287.594 270.746 269.591 247.307 249.922 222.199C249.922 222.199 227.586 192.275 203.805 166.075C194.526 155.929 149.353 114.445 106.125 113.033ZM4.50059 182.385C4.44503 182.578 4.38947 182.771 4.38947 182.963C4.38947 182.835 4.44503 182.642 4.50059 182.385Z" fill="#29ABE2"/>
<defs>
<linearGradient id="paint0_linear_116_474" x1="362.104" y1="81.5671" x2="583.748" y2="279.09" gradientUnits="userSpaceOnUse">
<stop offset="0.21" stop-color="#F15A24"/>
<stop offset="0.6841" stop-color="#FBB03B"/>
</linearGradient>
<linearGradient id="paint1_linear_116_474" x1="212.361" y1="359.62" x2="-9.22843" y2="162.089" gradientUnits="userSpaceOnUse">
<stop offset="0.21" stop-color="#ED1E79"/>
<stop offset="0.8929" stop-color="#522785"/>
</linearGradient>
<clipPath id="clip0_116_474">
<rect width="443" height="385" fill="white" transform="translate(480) rotate(90)"/>
</clipPath>
</defs>
</svg>
