<svg width="325" height="325" viewBox="0 0 325 325" fill="none" xmlns="http://www.w3.org/2000/svg">
<mask id="mask0_129_51" style="mask-type:alpha" maskUnits="userSpaceOnUse" x="0" y="0" width="325" height="325">
<rect width="325" height="325" fill="white"/>
</mask>
<g mask="url(#mask0_129_51)">
<path d="M212.453 58.6929C192.765 76.9944 175.459 96.7727 162.857 112.57C162.857 112.57 183.172 136.008 205.368 161.117C217.407 145.898 234.712 125.284 254.714 106.662C291.708 71.9213 315.785 64.9218 329.767 64.9218C381.872 64.9218 424.07 108.653 424.07 162.786C424.07 216.406 381.872 260.137 329.767 260.715C327.322 260.715 324.312 260.394 320.738 259.559C335.786 266.623 352.277 271.696 367.639 271.696C463.007 271.696 481.63 205.682 482.695 200.866C485.454 188.729 487.085 176.079 487.085 163.107C486.834 73.0772 416.42 -3.05176e-05 329.767 -3.05176e-05C293.589 -3.05176e-05 254.149 19.7783 212.453 58.6929Z" fill="url(#paint0_linear_129_51)"/>
<path d="M113.26 266.623C133.011 248.257 150.254 228.543 162.856 212.746C162.856 212.746 142.604 189.307 120.408 164.199C108.306 179.418 91.0636 200.031 71.0619 218.654C34.0682 253.073 9.67741 260.394 -4.05416 260.394C-56.0962 260.394 -98.3568 216.663 -98.3568 162.529C-98.3568 108.909 -56.0962 65.1787 -4.05416 64.6008C-1.60881 64.6008 1.46355 64.9218 4.97482 65.7566C-10.0735 58.6929 -26.5012 53.6199 -41.863 53.6199C-137.232 53.6199 -155.917 119.633 -156.982 124.45C-159.741 136.586 -161.372 149.237 -161.372 162.208C-161.372 252.238 -90.958 325.316 -4.05416 325.316C32.1244 325.316 71.6262 305.537 113.26 266.623Z" fill="url(#paint1_linear_129_51)"/>
<path d="M-41.6122 55.0326C-128.516 52.8493 -154.098 116.23 -156.293 124.385C-139.614 53.2988 -77.54 0.256831 -3.7407 -3.05176e-05C56.3898 -3.05176e-05 117.21 59.1424 162.104 112.57C162.167 112.441 162.229 112.377 162.292 112.313C162.292 112.313 182.607 135.687 204.804 160.796C204.804 160.796 230.009 190.72 256.908 216.984C267.317 227.13 317.979 268.035 366.761 269.448C456.173 272.017 480.814 205.104 482.194 200.031C465.766 271.439 403.504 324.738 329.516 325.059C269.323 325.059 208.503 265.852 163.421 212.425C163.295 212.553 163.233 212.617 163.17 212.746C163.17 212.746 142.855 189.307 120.659 164.199C120.659 164.199 95.4526 134.275 68.6165 108.075C58.1454 97.9286 7.16932 56.4454 -41.6122 55.0326ZM-156.293 124.385C-156.355 124.578 -156.418 124.771 -156.418 124.963C-156.418 124.835 -156.355 124.642 -156.293 124.385Z" fill="#29ABE2"/>
</g>
<defs>
<linearGradient id="paint0_linear_129_51" x1="247.252" y1="23.5671" x2="470.366" y2="247.943" gradientUnits="userSpaceOnUse">
<stop offset="0.21" stop-color="#F15A24"/>
<stop offset="0.6841" stop-color="#FBB03B"/>
</linearGradient>
<linearGradient id="paint1_linear_129_51" x1="78.2725" y1="301.62" x2="-144.779" y2="77.2423" gradientUnits="userSpaceOnUse">
<stop offset="0.21" stop-color="#ED1E79"/>
<stop offset="0.8929" stop-color="#522785"/>
</linearGradient>
</defs>
</svg>
